<?xml version="1.0" encoding="UTF-8" standalone="no"?>
<!-- Created with Inkscape (http://www.inkscape.org/) -->

<svg
   width="50mm"
   height="50mm"
   viewBox="0 0 50 50"
   version="1.1"
   id="svg1"
   xml:space="preserve"
   inkscape:version="1.4 (86a8ad7, 2024-10-11)"
   sodipodi:docname="favicon.svg"
   xmlns:inkscape="http://www.inkscape.org/namespaces/inkscape"
   xmlns:sodipodi="http://sodipodi.sourceforge.net/DTD/sodipodi-0.dtd"
   xmlns="http://www.w3.org/2000/svg"
   xmlns:svg="http://www.w3.org/2000/svg"><sodipodi:namedview
     id="namedview1"
     pagecolor="#ffffff"
     bordercolor="#000000"
     borderopacity="0.25"
     inkscape:showpageshadow="2"
     inkscape:pageopacity="0.0"
     inkscape:pagecheckerboard="0"
     inkscape:deskcolor="#d1d1d1"
     inkscape:document-units="mm"
     inkscape:zoom="2.7545174"
     inkscape:cx="82.5916"
     inkscape:cy="103.10336"
     inkscape:window-width="1398"
     inkscape:window-height="1020"
     inkscape:window-x="2989"
     inkscape:window-y="127"
     inkscape:window-maximized="0"
     inkscape:current-layer="layer1" /><defs
     id="defs1" /><g
     inkscape:label="Layer 1"
     inkscape:groupmode="layer"
     id="layer1"><path
       style="fill:#000000;stroke-width:1.20148"
       d="m 23.477148,46.554225 c -1.344608,-0.389992 -2.168654,-1.532319 -2.164095,-2.999955 0.0035,-1.125798 0.553944,-2.171745 1.395448,-2.6516 l 0.279191,-0.159205 -0.01554,-2.00189 -0.01554,-2.00189 -1.384126,-0.01032 -1.384127,-0.01032 -0.01,-1.229692 -0.01,-1.229693 1.408894,-3.4e-5 1.408894,-3.4e-5 v -5.64756 -5.647451 l -0.311363,-0.189805 c -0.68694,-0.418652 -1.221156,-1.2685 -1.349478,-2.146791 -0.06893,-0.471758 -0.04368,-0.823495 0.09901,-1.378828 0.127581,-0.496601 0.267899,-0.765228 0.610705,-1.169145 0.602882,-0.710355 1.253242,-1.021992 2.137652,-1.024309 0.445564,-0.0012 0.635458,0.02863 0.906966,0.142317 0.811137,0.339645 1.479055,1.034956 1.764491,1.836856 0.165521,0.465013 0.218499,1.24781 0.117529,1.736503 -0.164327,0.795282 -0.71948,1.61887 -1.350423,2.003397 l -0.311442,0.189805 v 8.895727 8.895725 l 0.25147,0.121497 c 0.416509,0.201233 0.960681,0.830547 1.213077,1.402875 0.188769,0.428048 0.223823,0.578373 0.244741,1.049564 0.04578,1.030946 -0.206896,1.759343 -0.835912,2.409785 -0.75785,0.783664 -1.759293,1.086207 -2.696069,0.814504 z m 1.183348,-2.29151 c 0.08501,-0.05998 0.196892,-0.205139 0.248644,-0.32258 0.264382,-0.599973 -0.11151,-1.247459 -0.724528,-1.248033 -0.487049,-4.56e-4 -0.84172,0.357246 -0.84217,0.849369 -6.73e-4,0.738244 0.728483,1.137241 1.318054,0.721244 z M 24.468901,20.932806 c 0.59323,-0.255609 0.697372,-1.022746 0.202376,-1.490766 -0.16753,-0.1584 -0.258381,-0.194793 -0.485783,-0.1946 -0.901472,7.7e-4 -1.173257,1.240626 -0.367515,1.676563 0.255127,0.138033 0.348083,0.139289 0.650922,0.0087 z m -7.214996,23.302509 c -0.927596,-0.345244 -1.65605,-1.167428 -1.89671,-2.14076 -0.10427,-0.421689 -0.10427,-1.194499 0,-1.616188 0.179353,-0.725379 0.776377,-1.564767 1.328825,-1.868271 l 0.249438,-0.137036 v -0.853246 -0.853247 l -2.713977,-0.03254 C 11.314372,36.699173 10.986946,36.668371 9.8761531,36.325193 9.2314111,36.126003 8.1658372,35.57651 7.580733,35.141497 6.7526909,34.525866 5.7705432,33.426219 5.2180716,32.496179 4.7174065,31.65335 4.3457492,30.654428 4.112453,29.524555 3.9335083,28.657907 3.9196552,27.004678 4.0839059,26.116825 4.3173595,24.854844 4.7526351,23.716707 5.4163001,22.632943 5.8411939,21.939092 6.9633006,20.72494 7.5922674,20.278483 8.4876442,19.642921 9.6433661,19.12042 10.617683,18.910693 l 0.415253,-0.08937 0.02966,-6.861977 c 0.03258,-7.5383497 0.0091,-7.0753258 0.390356,-7.6679046 0.219058,-0.3403987 0.46075,-0.553275 0.855403,-0.7534195 l 0.326271,-0.1654645 8.210483,-0.016856 c 8.191935,-0.016817 8.211056,-0.016558 8.463596,0.1150922 0.185964,0.096944 0.588097,0.533569 1.515824,1.6458445 0.694492,0.832643 1.598924,1.9163528 2.00985,2.4082433 1.191678,1.4264738 5.281125,6.3725686 5.863345,7.0915856 0.469832,0.580224 0.453783,0.493364 0.453783,2.455944 v 1.753936 l 0.623517,0.174178 c 2.690831,0.751682 4.880341,2.920693 5.80249,5.748166 0.350438,1.074504 0.453736,1.756673 0.453495,2.994816 -3.02e-4,1.542841 -0.207469,2.54332 -0.800284,3.864855 -0.408918,0.911583 -0.821047,1.550006 -1.472181,2.280543 -1.00687,1.129652 -2.125911,1.89934 -3.460761,2.380344 -1.159306,0.417746 -1.427498,0.441848 -4.962571,0.445974 l -3.163756,0.0037 -0.01,-1.229692 -0.01,-1.229693 2.358044,-3.5e-5 2.358046,-3.3e-5 v -8.909483 -8.909446 l -3.247873,-0.01804 -3.247873,-0.01804 -0.37497,-0.218932 c -0.584353,-0.341179 -0.984496,-0.910338 -1.135444,-1.615027 -0.03552,-0.165791 -0.05929,-1.946868 -0.06017,-4.506321 l -0.0015,-4.2321772 h -7.713154 -7.713153 l 0.01614,1.1977867 0.01614,1.1977852 4.072909,0.031947 4.07291,0.031936 0.227927,0.1957486 c 0.623851,0.5357783 0.607203,1.4880106 -0.03455,1.9762357 l -0.25191,0.191646 -4.058473,0.01726 -4.058472,0.01726 v 4.824965 c 0,5.323831 0.02319,4.998483 -0.383651,5.383148 -0.251576,0.237867 -0.275451,0.244523 -1.187141,0.330895 -2.1782179,0.206364 -4.0851215,1.647771 -5.0170153,3.792303 -0.3560159,0.819289 -0.4800081,1.407229 -0.5148654,2.441363 -0.035083,1.040832 0.049081,1.623446 0.3658237,2.532533 0.3835087,1.100693 1.1557948,2.208246 2.046685,2.935194 0.5384981,0.439403 1.462583,0.91645 2.168984,1.119709 l 0.593218,0.170692 2.743637,0.02404 2.743637,0.02404 v -4.119302 -4.119302 l -0.380308,-0.292242 c -0.900589,-0.692049 -1.33309,-1.642667 -1.266262,-2.78319 0.07872,-1.343426 0.923854,-2.434148 2.15327,-2.778985 1.608931,-0.451288 3.243966,0.713134 3.525533,2.510779 0.181944,1.1616 -0.455591,2.589919 -1.390937,3.116225 l -0.327461,0.184256 -1.4e-4,6.232626 -1.42e-4,6.232625 0.192797,0.09924 c 0.350312,0.180331 0.795218,0.609961 1.039361,1.00367 0.786309,1.268022 0.64251,2.870851 -0.351533,3.918292 -0.579381,0.610501 -1.215281,0.880984 -2.062999,0.877506 -0.328128,-0.0014 -0.616209,-0.04224 -0.812731,-0.11539 z m 1.340682,-2.244709 c 0.618792,-0.474488 0.371414,-1.491049 -0.385189,-1.582886 -0.928084,-0.11265 -1.276631,1.199289 -0.442252,1.664639 0.255242,0.142354 0.576584,0.110609 0.827441,-0.08175 z m 21.090345,-8.114273 c 0.846688,-0.313697 2.045104,-1.170934 2.5563,-1.828546 0.757832,-0.974892 1.21265,-1.996996 1.42321,-3.198369 0.143628,-0.819474 0.09113,-2.088744 -0.117829,-2.848882 -0.487774,-1.77442 -1.515987,-3.152717 -3.008844,-4.033292 -0.449318,-0.265033 -1.342267,-0.631516 -1.370211,-0.562357 -0.01032,0.02543 -0.0093,2.870619 0.0023,6.322638 0.01667,5.000332 0.03616,6.276398 0.09585,6.276398 0.0412,0 0.229875,-0.05742 0.419282,-0.12759 z M 18.558428,23.917104 c 0.702946,-0.499068 0.400222,-1.628141 -0.436533,-1.628141 -0.457858,0 -0.830505,0.385064 -0.830505,0.858179 0,0.28923 0.169279,0.631813 0.380843,0.770741 0.239433,0.15723 0.664163,0.156856 0.886195,-7.79e-4 z M 34.933716,13.801268 c -0.429447,-0.50228 -1.389398,-1.653775 -2.463068,-2.954539 -0.638023,-0.77297 -1.204416,-1.4448552 -1.258652,-1.4930761 -0.09163,-0.081458 -0.09861,0.080352 -0.09861,2.2837781 v 2.371454 h 1.99892 1.99892 z M 29.63034,43.841697 c -0.640695,-0.127751 -1.128849,-0.403369 -1.58564,-0.895273 -0.380349,-0.409587 -0.558682,-0.730841 -0.721296,-1.299371 -0.224712,-0.785633 -0.123538,-1.734961 0.260536,-2.444601 0.221626,-0.409493 0.769208,-0.983328 1.083795,-1.135758 l 0.250742,-0.121496 v -4.094821 -4.09482 l -0.270772,-0.154688 c -0.673863,-0.384962 -1.26562,-1.321152 -1.391507,-2.201433 -0.18634,-1.303008 0.452728,-2.665949 1.513786,-3.22846 0.501974,-0.266118 0.903676,-0.345928 1.55614,-0.309177 0.487545,0.02746 0.60658,0.05948 1.00037,0.269061 1.425743,0.758804 2.013329,2.612118 1.322424,4.171065 -0.215624,0.486528 -0.795907,1.150393 -1.163239,1.330787 -0.167369,0.08219 -0.252488,0.165492 -0.256311,0.250827 -0.02314,0.516611 -0.02066,7.974441 0.0026,8.007317 0.01632,0.02299 0.155398,0.109876 0.309076,0.193066 0.367518,0.198956 0.879587,0.784209 1.100682,1.257989 0.655131,1.40387 0.244755,3.130124 -0.948019,3.987854 -0.580898,0.417729 -1.452003,0.633846 -2.063431,0.511932 z m 0.735028,-2.260727 c 0.575592,-0.258985 0.724313,-1.005318 0.292901,-1.469892 -0.325674,-0.350706 -0.829887,-0.328296 -1.183601,0.05261 -0.393319,0.423553 -0.283839,1.097779 0.222044,1.367431 0.304499,0.162308 0.402489,0.169613 0.668656,0.04984 z m 0.09127,-13.885485 c 0.303822,-0.166833 0.442286,-0.408221 0.442286,-0.771059 0,-0.763241 -0.780919,-1.16012 -1.354963,-0.688619 -0.788425,0.647587 0.02434,1.947472 0.912677,1.459678 z m -4.207686,7.793693 4.9e-5,-1.229726 h 0.860168 0.860166 l -1.27e-4,1.229726 -1.28e-4,1.229727 h -0.860089 -0.860089 z"
       id="path1" /><path
       style="fill:#ffffff;stroke:#ffffff;stroke-width:0.0970235;stroke-dasharray:none"
       d="m 44.795554,129.12585 c -7.713374,-0.47941 -14.85693,-5.7209 -18.597039,-13.64534 -1.850792,-3.92142 -2.305246,-6.05841 -2.284737,-10.74363 0.0192,-4.38652 0.32761,-6.157891 1.647576,-9.462977 2.964369,-7.422538 9.480715,-13.059683 16.77818,-14.514424 0.997838,-0.198918 2.62288,-0.442418 3.611206,-0.54111 3.176241,-0.31717 4.183777,-1.215949 4.508857,-4.02215 0.119733,-1.033581 0.222771,-9.474589 0.22897,-18.757793 l 0.01127,-16.878555 h 8.04454 c 4.424497,0 11.373237,-0.07676 15.441644,-0.170581 l 7.397106,-0.170582 0.897554,-0.788063 c 1.131847,-0.993775 1.591203,-2.085464 1.591203,-3.781605 0,-1.539392 -0.822827,-3.190736 -1.978968,-3.971617 -0.67814,-0.458031 -1.536947,-0.488785 -16.054773,-0.574912 L 50.699839,31.011516 V 26.544204 22.076892 H 79.688221 108.6766 l 0.0926,16.621846 c 0.0918,16.47123 0.0978,16.634825 0.66345,18.05411 0.71396,1.791407 2.0661,3.389563 3.81348,4.507352 l 1.34932,0.863147 h 11.5321 c 6.34266,0 11.89311,0.0722 12.33432,0.160443 l 0.80222,0.160443 v 33.468311 33.468316 l -8.02213,-0.001 c -4.41217,-7.3e-4 -9.14843,-0.0759 -10.52503,-0.16707 l -2.5029,-0.16575 v -8.17272 -8.17272 l 0.97851,-0.61771 c 1.47379,-0.93036 3.37075,-3.16983 4.22807,-4.99147 2.24999,-4.7808 1.1535,-10.739281 -2.61899,-14.231941 -2.44784,-2.266272 -3.42067,-2.62727 -7.07999,-2.62727 -2.91137,0 -3.16455,0.04228 -4.61164,0.770124 -6.93658,3.488891 -8.45204,13.423387 -2.93718,19.254547 0.69049,0.73008 1.66065,1.54565 2.15593,1.81237 l 0.9005,0.48496 v 8.25367 8.25367 l -3.43772,0.18413 c -1.89076,0.10126 -4.952,0.10037 -6.802768,-0.002 l -3.365034,-0.18611 V 108.07123 87.084208 l 1.604425,-1.191259 c 6.015137,-4.46614 6.725747,-13.146368 1.501906,-18.346238 -0.798074,-0.794414 -2.083401,-1.790945 -2.85628,-2.214513 -1.340855,-0.73484 -1.546373,-0.770124 -4.485734,-0.770124 -2.830902,0 -3.194894,0.05636 -4.492391,0.695586 -1.514118,0.745945 -3.467564,2.515544 -4.621238,4.186313 -1.580541,2.28896 -2.315411,7.001193 -1.540371,9.877371 0.703929,2.612284 2.62458,5.394522 4.598298,6.661053 l 1.306603,0.838444 v 21.280009 21.28001 h -4.195749 c -2.307662,0 -5.426665,-0.0753 -6.931118,-0.16737 l -2.735368,-0.16736 V 113.7318 98.417476 l 1.510098,-0.97726 c 3.397249,-2.198527 5.402478,-6.500877 5.094048,-10.929604 -0.321193,-4.611989 -3.351539,-8.760167 -7.438839,-10.182884 -1.956016,-0.680854 -5.266417,-0.612567 -7.123256,0.146939 -3.065394,1.253842 -5.644702,4.054773 -6.612594,7.180766 -0.676677,2.185469 -0.594687,6.378908 0.162355,8.303748 0.778221,1.97868 2.497844,4.256168 4.103694,5.434969 l 1.319713,0.96876 v 15.50897 15.50898 l -8.150481,-0.0437 c -4.482764,-0.0241 -9.363426,-0.11913 -10.845915,-0.21127 z"
       id="path6"
       transform="scale(0.26458333)" /><path
       style="fill:#ffffff;stroke:#ffffff;stroke-width:0.194047;stroke-dasharray:none"
       d="m 148.40016,117.44393 c -0.19071,-5.71817 -0.27389,-16.23009 -0.18483,-23.359814 l 0.16192,-12.963139 3.2686,1.546086 c 5.95554,2.817044 11.29795,9.64351 12.86324,16.436519 1.85728,8.060148 -0.78756,17.300718 -6.62832,23.158068 -2.51817,2.52534 -7.25811,5.57896 -8.65985,5.57896 -0.2627,0 -0.62857,-4.63453 -0.82076,-10.39668 z"
       id="path7"
       transform="scale(0.26458333)" /><path
       style="fill:#ffffff;stroke:#ffffff;stroke-width:0.0485118;stroke-dasharray:none"
       d="m 112.56648,104.75391 c -0.78901,-0.35967 -1.30308,-0.86055 -1.66209,-1.61943 -0.85544,-1.80826 -0.0136,-3.835277 1.86871,-4.499385 0.72521,-0.255868 1.35315,-0.231258 2.03957,0.07993 0.75562,0.342566 1.10792,0.683553 1.51387,1.465295 0.44742,0.86157 0.47404,2.29849 0.0574,3.09643 -0.73016,1.39826 -2.49361,2.08063 -3.81742,1.47716 z"
       id="path8"
       transform="scale(0.26458333)" /><path
       style="fill:#ffffff;stroke:#ffffff;stroke-width:0.0485118;stroke-dasharray:none"
       d="m 90.358543,79.152966 c -2.004373,-0.94718 -2.67782,-3.244448 -1.468495,-5.009342 0.680428,-0.99302 2.150145,-1.569435 3.199811,-1.254947 1.219327,0.365319 2.253478,1.88129 2.243956,3.289436 -0.0085,1.258491 -0.628953,2.200466 -1.86183,2.826683 -0.919897,0.467245 -1.371266,0.49889 -2.113442,0.14817 z"
       id="path9"
       transform="scale(0.26458333)" /><path
       style="fill:#ffffff;stroke:#ffffff;stroke-width:0.0485118;stroke-dasharray:none"
       d="m 67.385862,90.59205 c -0.875691,-0.304688 -1.755444,-1.556236 -1.934839,-2.752525 -0.184373,-1.229485 0.614802,-2.654682 1.79739,-3.20535 3.171251,-1.476683 5.827769,2.843269 3.261282,5.303402 -0.235619,0.225855 -0.64314,0.500212 -0.905603,0.609682 -0.537462,0.224168 -1.638775,0.246406 -2.21823,0.04479 z"
       id="path10"
       transform="scale(0.26458333)" /><path
       style="fill:#ffffff;stroke:#ffffff;stroke-width:0.0485118;stroke-dasharray:none"
       d="m 112.58611,157.04922 c -1.21428,-0.59489 -1.86019,-1.50219 -1.97562,-2.77513 -0.18143,-2.00085 1.95201,-3.96033 3.7769,-3.46894 0.84471,0.22745 1.506,0.80038 1.95046,1.68982 0.86348,1.72797 0.2024,3.66125 -1.55068,4.53485 -0.82193,0.40958 -1.39431,0.41463 -2.20106,0.0194 z"
       id="path11"
       transform="scale(0.26458333)" /><path
       style="fill:#ffffff;stroke:#ffffff;stroke-width:0.0485118;stroke-dasharray:none"
       d="m 90.472492,167.70391 c -1.315012,-0.41141 -2.156178,-1.64176 -2.150304,-3.14519 0.0071,-1.80541 1.269555,-3.07992 3.057441,-3.08654 2.390611,-0.009 3.761835,2.54386 2.556286,4.75885 -0.425179,0.7812 -0.965181,1.22538 -1.792338,1.47432 -0.721771,0.21722 -0.972875,0.21701 -1.671085,-0.001 z"
       id="path12"
       transform="scale(0.26458333)" /><path
       style="fill:#ffffff;stroke:#ffffff;stroke-width:0.0485118;stroke-dasharray:none"
       d="m 67.601587,159.14144 c -0.234325,-0.0675 -0.734746,-0.4233 -1.112047,-0.79064 -0.546843,-0.5324 -0.729879,-0.82011 -0.902297,-1.41832 -0.688574,-2.38902 1.235096,-4.61371 3.516239,-4.06647 0.861247,0.20661 1.562349,0.75462 2.007907,1.56947 0.31159,0.56985 0.371547,0.8263 0.369122,1.57884 -0.0035,1.09367 -0.29531,1.73035 -1.129544,2.46467 -0.841466,0.74069 -1.7326,0.9554 -2.74938,0.66245 z"
       id="path13"
       transform="scale(0.26458333)" /><path
       style="fill:#ffffff;stroke:#ffffff;stroke-width:0.0485118;stroke-dasharray:none"
       d="m 117.65972,44.228573 c 0.0225,-4.759307 0.0835,-8.695867 0.13563,-8.747911 0.12499,-0.12488 0.0425,-0.221143 7.90301,9.218627 l 6.81366,8.182569 h -7.44661 -7.44661 z"
       id="path14"
       transform="scale(0.26458333)" /></g></svg>
